<svg width="29" height="24" viewBox="0 0 17 28" fill="none" xmlns="http://www.w3.org/2000/svg">
<path d="M9.15128 12.2889C5.36051 11.3711 4.14145 10.4222 4.14145 8.94444C4.14145 7.24889 5.82809 6.06667 8.65029 6.06667C11.6228 6.06667 12.7249 7.38889 12.8251 9.33333H16.5157C16.3988 6.65778 14.6454 4.2 11.1552 3.40667V0H6.14538V3.36C2.9057 4.01333 0.300589 5.97333 0.300589 8.97556C0.300589 12.5689 3.49018 14.3578 8.14931 15.4C12.3242 16.3333 13.1591 17.7022 13.1591 19.1489C13.1591 20.2222 12.3409 21.9333 8.65029 21.9333C5.21022 21.9333 3.85756 20.5022 3.67387 18.6667H0C0.200393 22.0733 2.9391 23.9867 6.14538 24.6244V28H11.1552V24.6556C14.4116 24.08 17 22.3222 17 19.1333C17 14.7156 12.942 13.2067 9.15128 12.2889Z" fill="#7A7AB3"/>
</svg>
