<svg width="31" height="30" viewBox="0 0 31 30" fill="none" xmlns="http://www.w3.org/2000/svg">
<path d="M19.6396 22.7451C19.2791 23.0542 18.8193 23.2366 18.336 23.2621H12.3114C11.8278 23.2366 11.3677 23.0543 11.0067 22.7451L10.5813 22.3356C10.4373 22.1993 10.2431 22.1228 10.0407 22.1228C9.8383 22.1228 9.64407 22.1993 9.50013 22.3356L4.97735 26.668C4.83456 26.8055 4.75439 26.9916 4.75439 27.1856C4.75439 27.3795 4.83456 27.5656 4.97735 27.7031L6.69916 29.352C6.84292 29.4884 7.03706 29.5648 7.23938 29.5648C7.44169 29.5648 7.63583 29.4884 7.77959 29.352L11.0073 26.2588C11.3682 25.9498 11.8281 25.7675 12.3116 25.742H18.3379C18.8212 25.7674 19.2809 25.9497 19.6414 26.2588L22.8706 29.352C23.0143 29.4884 23.2083 29.5648 23.4106 29.5648C23.6127 29.5648 23.8068 29.4884 23.9504 29.352L25.6722 27.7031C25.8151 27.5656 25.8952 27.3795 25.8952 27.1856C25.8952 26.9916 25.8151 26.8055 25.6722 26.668L21.1462 22.3353C21.0026 22.199 20.8086 22.1226 20.6064 22.1226C20.4043 22.1226 20.2102 22.199 20.0666 22.3353L19.6396 22.7451Z" fill="#583BD1"/>
<path d="M11.1157 7.24537C11.4761 6.93581 11.9361 6.75339 12.4196 6.7283H18.4447C18.9279 6.75383 19.3877 6.93619 19.7484 7.24537L20.1758 7.65456C20.2466 7.72246 20.3307 7.77631 20.4233 7.81307C20.5159 7.84981 20.6152 7.86873 20.7154 7.86873C20.8156 7.86873 20.915 7.84981 21.0074 7.81307C21.1 7.77631 21.1842 7.72246 21.2551 7.65456L25.779 3.32197C25.9217 3.18442 26.0018 2.99836 26.0018 2.80442C26.0018 2.6105 25.9217 2.42443 25.779 2.28688L24.0572 0.639916C23.9139 0.502802 23.7196 0.425781 23.5171 0.425781C23.3145 0.425781 23.1202 0.502802 22.9769 0.639916L19.7485 3.73159C19.3878 4.04075 18.9281 4.22312 18.4448 4.24864H12.4196C11.9361 4.22355 11.4761 4.04113 11.1157 3.73159L7.88729 0.639916C7.74354 0.503636 7.54943 0.42719 7.34714 0.42719C7.14487 0.42719 6.95076 0.503636 6.807 0.639916L5.08518 2.2888C4.94244 2.42633 4.8623 2.61237 4.8623 2.80628C4.8623 3.00019 4.94244 3.18622 5.08518 3.32375L9.60811 7.65443C9.7514 7.79154 9.94568 7.86856 10.1483 7.86856C10.3508 7.86856 10.5451 7.79154 10.6884 7.65443L11.1157 7.24537Z" fill="#583BD1"/>
<path d="M23.5471 10.8832C23.8707 11.2289 24.0615 11.67 24.0878 12.1336V17.9025C24.0614 18.3659 23.8706 18.8067 23.5471 19.1519L23.1205 19.5612C22.9779 19.6987 22.8979 19.8845 22.8979 20.0783C22.8979 20.272 22.9779 20.4578 23.1205 20.5953L27.6451 24.9271C27.7886 25.0638 27.9828 25.1405 28.1851 25.1405C28.3876 25.1405 28.5817 25.0638 28.7251 24.9271L30.4469 23.2773C30.5898 23.14 30.6701 22.954 30.6701 22.7602C30.6701 22.5664 30.5898 22.3804 30.4469 22.2431L27.2193 19.1514C26.8956 18.8061 26.7047 18.3653 26.6783 17.902L26.6791 12.1331C26.7051 11.6695 26.8956 11.2284 27.2193 10.8827L30.4469 7.79101C30.5898 7.65396 30.6701 7.46822 30.6701 7.27457C30.6701 7.08092 30.5898 6.89517 30.4469 6.75812L28.7251 5.10827C28.6542 5.04036 28.5701 4.98648 28.4775 4.94972C28.3847 4.91297 28.2855 4.89404 28.1851 4.89404C28.0849 4.89404 27.9856 4.91297 27.8929 4.94972C27.8002 4.98648 27.7161 5.04036 27.6451 5.10827L23.1205 9.4399C22.9779 9.57734 22.8979 9.76322 22.8979 9.95697C22.8979 10.1507 22.9779 10.3366 23.1205 10.474L23.5471 10.8832Z" fill="#583BD1"/>
<path d="M7.20847 19.1069C6.88566 18.7615 6.69545 18.3211 6.66926 17.8583V12.0872C6.69538 11.6244 6.88559 11.1839 7.20847 10.8386L7.63492 10.4303C7.77793 10.293 7.85823 10.1071 7.85823 9.91327C7.85823 9.71941 7.77793 9.53347 7.63492 9.39627L3.11157 5.06395C2.96813 4.92715 2.77394 4.85034 2.57149 4.85034C2.36904 4.85034 2.17485 4.92715 2.03142 5.06395L0.309601 6.71284C0.167259 6.85038 0.0874023 7.03618 0.0874023 7.22983C0.0874023 7.42348 0.167259 7.60929 0.309601 7.74683L3.538 10.8385C3.86146 11.1835 4.05193 11.6241 4.07779 12.0871V17.8582C4.052 18.321 3.8615 18.7612 3.538 19.1059L0.309601 22.1988C0.167259 22.3364 0.0874023 22.5222 0.0874023 22.7157C0.0874023 22.9094 0.167259 23.0952 0.309601 23.2328L2.03142 24.8816C2.17487 25.0184 2.36906 25.0952 2.57149 25.0952C2.77392 25.0952 2.96812 25.0184 3.11157 24.8816L7.63492 20.549C7.77791 20.4117 7.85822 20.2259 7.85822 20.0321C7.85822 19.8381 7.77791 19.6523 7.63492 19.5151L7.20847 19.1069Z" fill="#583BD1"/>
</svg>
